# xmcd
#
# Track frame offsets:
#	182
#	14267
#	28775
#	41320
#	55457
#	68237
#	81715
#	93150
#	105805
#	118387
#	131582
#	147165
#
# Disc length: 2154 seconds
#
# Revision: 0
# Processed by: cddbd v1.4PL0 Copyright (c) Steve Scherf et al.
# Submitted via: EasyCDDAExtractor 4.5.2.1
#
DISCID=a208680c
DTITLE=Blind Lemon Jefferson - Jazz and Blues Collection - CD 89
DYEAR=1900
DGENRE=Blues
TTITLE0=That Black Snake Moan
TTITLE1=Stocking feet Blues
TTITLE2=Chock House Blues
TTITLE3=Broke And Hungry
TTITLE4=Chinch Bug Blues
TTITLE5=Deceitful Brownskin Blues
TTITLE6=Lonesome House Blues
TTITLE7=Bally Mule Blues
TTITLE8=Blind Lemon's Penitentiary Blues
TTITLE9=Black Snake Moan no.2
TTITLE10=Long Distance Moan
TTITLE11=Bakershop Blues
EXTD=
EXTT0=
EXTT1=
EXTT2=
EXTT3=
EXTT4=
EXTT5=
EXTT6=
EXTT7=
EXTT8=
EXTT9=
EXTT10=
EXTT11=
PLAYORDER=
